<?xml version="1.0" encoding="UTF-8" standalone="no"?>
<svg
   width="900px"
   height="900px"
   viewBox="0 0 900 900"
   version="1.1"
   xml:space="preserve"
   id="SVGRoot"
   inkscape:version="1.3.2 (091e20ef0f, 2023-11-25)"
   sodipodi:docname="gb-logo.svg"
   xmlns:inkscape="http://www.inkscape.org/namespaces/inkscape"
   xmlns:sodipodi="http://sodipodi.sourceforge.net/DTD/sodipodi-0.dtd"
   xmlns="http://www.w3.org/2000/svg"
   xmlns:svg="http://www.w3.org/2000/svg"><defs
   id="defs2" />
<sodipodi:namedview
   pagecolor="#a9a9a9"
   bordercolor="#292929"
   borderopacity="1"
   inkscape:showpageshadow="2"
   inkscape:pageopacity="0.0"
   inkscape:pagecheckerboard="0"
   inkscape:deskcolor="#232323"
   id="namedview1"
   showgrid="true"
   inkscape:zoom="0.93023829"
   inkscape:cx="375.17269"
   inkscape:cy="451.49722"
   inkscape:window-width="1920"
   inkscape:window-height="1049"
   inkscape:window-x="320"
   inkscape:window-y="1440"
   inkscape:window-maximized="1"
   inkscape:current-layer="layer1"
   showguides="true"><inkscape:grid
     id="grid9"
     units="px"
     originx="0"
     originy="0"
     spacingx="12"
     spacingy="12"
     empcolor="#0099e5"
     empopacity="0.30196078"
     color="#0099e5"
     opacity="0.14902"
     empspacing="24"
     dotted="false"
     gridanglex="30"
     gridanglez="30"
     visible="true" /></sodipodi:namedview>
<style
   type="text/css"
   id="style1">
g.prefab path {
  vector-effect:non-scaling-stroke;
  -inkscape-stroke:hairline;
  fill: none;
  fill-opacity: 1;
  stroke-opacity: 1;
  stroke: #00349c;
}
</style>

<path
   id="path5"
   style="display:inline;fill:#000000;stroke:#000000;stroke-width:24;stroke-dasharray:none"
   d="m 456,36.146484 v 0.429688 a 414,413.78516 0 0 0 -6,-0.146484 414,413.78516 0 0 0 -6,0.429687 V 36.429688 A 414,414 0 0 0 36,450 414,414 0 0 0 444,863.57031 414,413.78516 0 0 0 450,864 a 414,413.78516 0 0 0 6,-0.42969 C 564.68204,861.99509 668.38568,817.74244 744.7207,740.36523 813.9892,670.15103 857.6647,575.99947 862.88086,480.05469 865.50239,431.83498 816,413.75781 816,413.75781 c 0,0 40.83582,-30.17745 35.35547,-65.19726 C 840.00038,276.00083 796.94689,212.32754 744.82031,159.45312 668.47737,82.014911 564.73104,37.722459 456,36.146484 Z"
   inkscape:label="Pozadina" /><g
   inkscape:groupmode="layer"
   id="layer1"
   inkscape:label="Slova"><path
     id="path3"
     style="display:inline;fill:#808080;stroke:#000000;stroke-width:0;stroke-dasharray:none"
     d="M 456,36.146484 V 60 96.162109 803.52734 840 863.57031 C 564.68215,861.99509 668.38533,817.74178 744.72043,740.3645 813.989,670.15023 857.66417,576 862.88033,480.05512 865.50186,431.83536 816,413.7569 816,413.7569 c 0,0 40.83546,-30.17726 35.3551,-65.19711 C 840,276 796.94638,212.32765 744.81975,159.45318 668.47673,82.014889 564.73115,37.72246 456,36.146484 Z m 60,66.769536 C 646.11156,127.88123 768.58919,227.43738 788.08968,347.91569 790.30022,361.57286 781.41689,384 767.58198,384 H 516 Z M 516,444 h 251.34659 c 16.91615,0 34.99102,19.58326 35.26125,36.49725 C 804.88066,622.75267 672.61945,767.0547 516,796.77539 Z"
     sodipodi:nodetypes="ccccccsscssccascccsacc"
     inkscape:label="B" /><path
     id="path4"
     style="fill:#808080;stroke:#000000;stroke-width:0;stroke-dasharray:none"
     d="M 444 36.429688 A 414 414 0 0 0 36 450 A 414 414 0 0 0 444 863.57031 L 444 803.52734 A 354 354 0 0 1 443.99609 803.52734 L 443.99609 444 L 432 444 L 204.12305 444 A 280.51933 354 0 0 0 203.78125 450 A 280.51933 354 0 0 0 207.33789 504 L 384.00391 504 L 384.00391 796.77539 A 354 354 0 0 1 96 450 A 354 354 0 0 1 444 96.472656 L 444 36.429688 z "
     inkscape:label="G" /></g></svg>
